# xmcd
#
# Track frame offsets: 
#        150
#        25420
#        45565
#        80047
#        113437
#
# Disc length: 1907 seconds
#
# Revision: 2
# Processed by: cddbd v1.5.2PL0 Copyright (c) Steve Scherf et al.
# Submitted via: ExactAudioCopy v1.0b3
#
DISCID=34077105
DTITLE=Dave Gahan - Kingdom (Club Promo)
DYEAR=2007
DGENRE=Electronic
TTITLE0=Kingdom (Digitalism Remix)
TTITLE1=Kingdom (Digitalism Dub)
TTITLE2=Kingdom (Booka Shade Club Mix)
TTITLE3=Kingdom (Booka Shade Dub Mix)
TTITLE4=Kingdom (K10K Extended Mix)
EXTD=
EXTT0=
EXTT1=
EXTT2=
EXTT3=
EXTT4=
PLAYORDER=
